<svg width="336" height="325" viewBox="0 0 336 325" fill="none" xmlns="http://www.w3.org/2000/svg">
<g clip-path="url(#clip0_149_1281)">
<path d="M194.37 316.881L99.7673 317.195C74.6694 309.63 54.1067 283.355 53.9766 243.961C53.9514 238.027 54.3983 232.1 55.3131 226.237L131.511 209.064L190.293 195.818C194.625 199.709 198.661 203.918 202.368 208.412L146.159 238.184L119.642 252.23L149.439 241.919L211.283 220.516C215.139 226.431 218.576 232.612 221.566 239.011L202.907 258.356L224.015 244.494C224.105 244.706 224.195 244.919 224.285 245.132C237.662 276.99 221.064 316.792 194.37 316.881Z" fill="#F2F2F2"/>
<path d="M178.824 186.902C164.517 191.023 146.929 196.231 128.845 201.643C102.698 209.472 75.5171 217.733 55.7285 223.771L55.7414 223.7C56.4729 219.463 58.1925 215.459 60.7601 212.015C75.4189 192.897 94.0846 179.541 114.859 174.581H114.861C120.702 173.183 126.685 172.467 132.691 172.447C149.219 172.392 164.874 177.592 178.824 186.902Z" fill="#F2F2F2"/>
<path d="M117.515 325C153.074 325 181.9 320.83 181.9 315.685C181.9 310.54 153.074 306.37 117.515 306.37C81.956 306.37 53.1299 310.54 53.1299 315.685C53.1299 320.83 81.956 325 117.515 325Z" fill="#3F3D56"/>
<path d="M94.6084 228.742V243.232L104.927 244.474L111.117 236.608L106.165 226.672L94.6084 228.742Z" fill="#FBBEBE"/>
<path d="M133.817 288.36L139.183 302.85L149.088 299.538L141.659 287.532L133.817 288.36Z" fill="#FBBEBE"/>
<path d="M121.435 164.984C121.435 164.984 67.781 159.602 69.4319 174.506C71.0828 189.411 94.6081 232.054 94.6081 232.054L110.292 229.156C110.292 229.156 99.148 211.768 99.9735 205.971C100.799 200.175 97.4971 192.309 97.4971 192.309L105.339 193.551L109.879 200.589L119.372 249.443L133.817 293.328L144.548 290.43C144.548 290.43 138.77 272.213 140.421 266.417C142.071 260.621 132.579 238.264 132.579 238.264L139.182 199.347C139.182 199.347 151.977 195.621 148.262 182.787C144.548 169.952 121.435 164.984 121.435 164.984Z" fill="#2F2E41"/>
<path d="M99.1484 238.678C99.1484 238.678 92.9575 233.71 93.3703 235.78C93.6036 237.289 93.6036 238.825 93.3703 240.334L87.5921 253.169C87.5921 253.169 73.5595 266.003 86.3539 266.417C99.1484 266.831 105.752 253.583 105.752 253.583C105.752 253.583 123.499 240.334 121.436 238.264C119.372 236.194 108.541 231.44 108.541 231.44C108.541 231.44 104.927 241.576 99.1484 238.678Z" fill="#2F2E41"/>
<path d="M138.77 296.226C138.77 296.226 132.992 290.844 132.579 293.328C132.166 295.812 131.754 299.124 131.754 299.124L123.086 307.404C123.086 307.404 110.705 319.411 121.435 319.825C124.537 319.965 127.63 319.406 130.487 318.188C133.345 316.97 135.893 315.124 137.944 312.786C137.944 312.786 153.628 309.474 152.803 306.99C151.977 304.506 147.838 294.896 145.987 294.526C144.135 294.156 143.723 299.538 138.77 296.226Z" fill="#2F2E41"/>
<path d="M118.96 105.366C126.026 105.366 131.754 99.6199 131.754 92.5317C131.754 85.4434 126.026 79.6973 118.96 79.6973C111.893 79.6973 106.165 85.4434 106.165 92.5317C106.165 99.6199 111.893 105.366 118.96 105.366Z" fill="#FBBEBE"/>
<path d="M113.181 101.226C113.181 101.226 118.546 115.717 118.133 116.959C117.721 118.201 135.055 106.608 135.055 106.608C135.055 106.608 127.626 104.952 127.626 98.3281L113.181 101.226Z" fill="#FBBEBE"/>
<path d="M160.232 122.341C160.232 122.341 167.661 129.793 168.899 132.277C170.137 134.761 198.202 166.226 198.202 166.226C198.202 166.226 216.775 188.169 209.346 188.583C201.917 188.997 192.424 171.194 192.424 171.194C192.424 171.194 166.01 151.736 164.772 147.182L149.501 131.449L160.232 122.341Z" fill="#FBBEBE"/>
<path d="M121.435 113.647H116.895L110.704 123.583C110.704 123.583 104.513 128.965 109.053 140.143C113.593 151.322 117.308 165.398 117.308 165.398C117.308 165.398 130.515 167.054 132.991 171.194C135.468 175.335 149.5 188.583 149.5 188.583C149.5 188.583 151.977 179.889 151.151 167.054C150.326 154.22 151.151 134.761 151.151 134.761L150.326 109.092C150.326 109.092 134.385 105.386 133.275 105.997C132.166 106.608 121.435 113.647 121.435 113.647Z" fill="#575A89"/>
<path d="M144.135 110.334L150.326 109.092C150.326 109.092 156.929 113.232 163.12 125.239C163.12 125.239 149.913 133.933 148.675 133.519C147.437 133.105 144.135 110.334 144.135 110.334Z" fill="#575A89"/>
<path d="M106.164 138.487C106.164 138.487 96.6718 153.806 99.5608 159.602C102.45 165.398 106.164 164.984 106.164 164.984C106.164 164.984 113.181 163.742 113.181 157.946C113.181 152.15 116.07 151.736 116.07 151.736C116.07 151.736 134.23 136.831 127.213 136.831C120.197 136.831 110.704 147.181 110.704 147.181L110.292 137.659L106.164 138.487Z" fill="#FBBEBE"/>
<path d="M112.356 123.169C112.356 123.169 106.165 124.825 104.927 131.449C103.688 138.073 104.101 141.386 104.101 141.386L112.356 140.557V123.169Z" fill="#575A89"/>
<path opacity="0.1" d="M100.799 156.29C100.799 156.29 107.402 147.596 108.228 148.838L100.799 156.29Z" fill="black"/>
<path d="M125.459 76.9943C125.459 76.9943 118.674 70.1938 112.141 74.7598C105.609 79.3259 102.567 83.6748 103.296 86.6281C104.026 89.5815 106.062 93.6627 106.062 93.6627C106.062 93.6627 104.703 87.5402 110.195 86.9405C115.686 86.3408 123.195 82.4878 123.195 82.4878L128.625 93.371C128.625 93.371 129.286 90.7987 131.321 91.4781C133.356 92.1576 131.414 77.6555 125.459 76.9943Z" fill="#2F2E41"/>
<path d="M79.029 304.67C79.029 310.706 75.4517 312.814 71.0384 312.814C70.9362 312.814 70.8341 312.813 70.7322 312.811C70.5277 312.806 70.3252 312.797 70.1251 312.783C66.1422 312.5 63.0479 310.284 63.0479 304.67C63.0479 298.86 70.4493 291.528 71.0053 290.986L71.0063 290.985C71.0277 290.964 71.0384 290.954 71.0384 290.954C71.0384 290.954 79.029 298.633 79.029 304.67Z" fill="#FF7612"/>
<path d="M70.7478 311.891L73.6703 307.794L70.7405 312.341L70.7327 312.811C70.5282 312.806 70.3257 312.797 70.1256 312.783L70.4406 306.743L70.4382 306.697L70.4435 306.688L70.4733 306.117L67.5361 301.56L70.4825 305.69L70.4893 305.811L70.7274 301.247L68.2129 296.538L70.7581 300.446L71.0059 290.986L71.0068 290.954V290.985L70.9655 298.445L73.4688 295.488L70.9552 299.088L70.889 303.173L73.2264 299.252L70.8793 303.775L70.8423 306.046L74.2356 300.589L70.8296 306.839L70.7478 311.891Z" fill="#3F3D56"/>
<path d="M260.556 90.9443C260.556 90.9443 258.017 98.8644 254.054 110.244C252.773 113.94 251.338 117.998 249.791 122.269C247.635 128.217 245.261 134.579 242.775 140.941C241.246 144.856 239.675 148.766 238.086 152.587C229.547 173.065 220.453 190.807 214.494 191.056C201.107 191.613 172.431 101.761 169.301 91.8329C169.118 91.2524 169.023 90.9443 169.023 90.9443H260.556Z" fill="#3F3D56"/>
<path opacity="0.1" d="M254.054 110.244C252.773 113.94 251.338 117.998 249.791 122.269L214.329 90.9443H232.205L254.054 110.244Z" fill="black"/>
<path opacity="0.1" d="M242.775 140.941C241.246 144.856 239.675 148.766 238.086 152.587L169.301 91.8329C169.118 91.2524 169.023 90.9443 169.023 90.9443H186.173L242.775 140.941Z" fill="black"/>
<path d="M216.377 11.3652C212.181 14.6994 205.546 13.4386 201.513 16.9699C198.755 19.3854 198.019 23.5159 198.771 27.1105C199.524 30.705 201.524 33.8946 203.536 36.9633C204.925 39.0812 206.366 41.2158 208.317 42.8265C211.045 45.0785 214.547 46.1268 217.979 46.9689C225.453 48.8019 233.084 49.9117 240.77 50.2829C244.197 50.4481 248.078 50.2829 250.387 47.7371C251.732 46.2547 252.272 44.2232 252.667 42.2583C253.283 39.1848 253.625 35.8758 252.352 33.0129C251.305 30.6597 249.29 28.8959 247.25 27.3299C240.851 22.4181 233.314 18.3516 229.408 11.2818C227.856 8.47165 226.899 5.21526 224.546 3.03493C221.479 0.193061 214.655 -0.96898 211.043 0.929438C211.601 2.20533 218.892 9.36639 216.377 11.3652Z" fill="#FF7612"/>
<path d="M181.116 44.5039C179.872 48.8315 178.726 53.4105 179.773 57.7902C181.155 63.5647 186.202 67.8893 191.738 69.9914C197.275 72.0935 203.313 72.3389 209.229 72.5605L240.202 73.721C244.095 73.8668 248.062 74.0268 251.721 75.3691C254.736 76.4754 258.319 78.2971 260.833 76.2937C261.973 75.385 262.485 73.9137 262.89 72.5106C264.206 67.9447 264.943 62.9309 263.173 58.5222C261.144 53.4701 256.141 50.1504 250.947 48.5636C245.753 46.9768 240.252 46.8223 234.856 46.223C229.381 45.6149 223.968 44.54 218.676 43.0102C214.251 41.7311 209.768 40.0432 206.496 36.7939C204.725 35.0363 203.385 32.8928 201.716 31.0378C192.157 20.4116 183.467 36.326 181.116 44.5039Z" fill="#FF7612"/>
<path d="M174.31 64.3858C171.297 65.7394 168.684 67.8505 166.724 70.5145C164.763 73.1786 163.522 76.3053 163.119 79.592C162.717 82.8786 163.168 86.2138 164.428 89.2744C165.688 92.335 167.714 95.0174 170.311 97.0618C175.027 100.775 181.199 102.066 187.179 102.498C193.018 102.92 198.882 102.63 204.729 102.339L256.463 99.7689C259.495 99.6183 262.927 99.2682 264.778 96.8541C266.16 95.0524 266.241 92.5674 265.911 90.3185C264.725 82.2288 258.635 75.0671 250.859 72.6153C247.926 71.6906 244.838 71.398 241.778 71.1108L219.601 69.0293C216.614 68.749 213.611 68.4656 210.716 67.6763C201.946 65.285 194.11 58.3033 185.081 59.3371C178.955 60.0384 173.911 64.3402 169.462 68.6211" fill="#FF7612"/>
<path opacity="0.1" d="M203.274 29.3374C203.274 29.3374 210.513 42.4464 247.64 47.7394L203.274 29.3374Z" fill="black"/>
<path opacity="0.1" d="M182.737 63.6719C182.737 63.6719 196.188 77.3195 251.698 77.3195L182.737 63.6719Z" fill="black"/>
<path d="M213.904 22.8212C215.86 22.8212 217.447 22.2907 217.447 21.6364C217.447 20.9821 215.86 20.4517 213.904 20.4517C211.947 20.4517 210.36 20.9821 210.36 21.6364C210.36 22.2907 211.947 22.8212 213.904 22.8212Z" fill="#3F3D56"/>
<path d="M225.714 30.5218C227.671 30.5218 229.257 29.9914 229.257 29.3371C229.257 28.6828 227.671 28.1523 225.714 28.1523C223.757 28.1523 222.171 28.6828 222.171 29.3371C222.171 29.9914 223.757 30.5218 225.714 30.5218Z" fill="#3F3D56"/>
<path d="M239.297 38.8153C241.254 38.8153 242.84 38.2849 242.84 37.6306C242.84 36.9762 241.254 36.4458 239.297 36.4458C237.34 36.4458 235.754 36.9762 235.754 37.6306C235.754 38.2849 237.34 38.8153 239.297 38.8153Z" fill="#3F3D56"/>
<path d="M192.054 42.3695C194.011 42.3695 195.597 41.8391 195.597 41.1848C195.597 40.5304 194.011 40 192.054 40C190.097 40 188.511 40.5304 188.511 41.1848C188.511 41.8391 190.097 42.3695 192.054 42.3695Z" fill="#3F3D56"/>
<path d="M222.171 53.6249C224.128 53.6249 225.714 53.0944 225.714 52.4401C225.714 51.7858 224.128 51.2554 222.171 51.2554C220.214 51.2554 218.628 51.7858 218.628 52.4401C218.628 53.0944 220.214 53.6249 222.171 53.6249Z" fill="#3F3D56"/>
<path d="M179.653 76.7274C181.609 76.7274 183.196 76.197 183.196 75.5427C183.196 74.8883 181.609 74.3579 179.653 74.3579C177.696 74.3579 176.109 74.8883 176.109 75.5427C176.109 76.197 177.696 76.7274 179.653 76.7274Z" fill="#3F3D56"/>
<path d="M202.093 54.8094C204.05 54.8094 205.636 54.279 205.636 53.6247C205.636 52.9704 204.05 52.4399 202.093 52.4399C200.136 52.4399 198.55 52.9704 198.55 53.6247C198.55 54.279 200.136 54.8094 202.093 54.8094Z" fill="#3F3D56"/>
<path d="M188.511 85.6132C190.468 85.6132 192.054 85.0827 192.054 84.4284C192.054 83.7741 190.468 83.2437 188.511 83.2437C186.554 83.2437 184.968 83.7741 184.968 84.4284C184.968 85.0827 186.554 85.6132 188.511 85.6132Z" fill="#3F3D56"/>
<path d="M211.541 80.2816C213.498 80.2816 215.084 79.7512 215.084 79.0969C215.084 78.4425 213.498 77.9121 211.541 77.9121C209.584 77.9121 207.998 78.4425 207.998 79.0969C207.998 79.7512 209.584 80.2816 211.541 80.2816Z" fill="#3F3D56"/>
<path d="M225.42 108.716C227.539 108.716 229.258 105.135 229.258 100.719C229.258 96.3021 227.539 92.7217 225.42 92.7217C223.3 92.7217 221.581 96.3021 221.581 100.719C221.581 105.135 223.3 108.716 225.42 108.716Z" fill="#FF7612"/>
<path d="M230.143 111.678C232.263 111.678 233.982 108.097 233.982 103.681C233.982 99.264 232.263 95.6836 230.143 95.6836C228.023 95.6836 226.305 99.264 226.305 103.681C226.305 108.097 228.023 111.678 230.143 111.678Z" fill="#FF7612"/>
<path d="M222.268 180.792C222.299 180.634 223.095 176.852 227.259 171.334C231.08 166.272 238.595 158.74 252.7 151.603C279.422 138.082 285.402 112.68 285.459 112.424L286.173 112.586C286.158 112.651 284.663 119.154 279.849 127.248C273.461 137.972 264.158 146.648 253.03 152.258C226.353 165.756 223.016 180.787 222.985 180.937L222.268 180.792Z" fill="#3F3D56"/>
<path d="M286.826 109.707C289.453 109.707 291.582 107.571 291.582 104.935C291.582 102.3 289.453 100.164 286.826 100.164C284.199 100.164 282.069 102.3 282.069 104.935C282.069 107.571 284.199 109.707 286.826 109.707Z" fill="#FF7612"/>
<path d="M285.884 132.857C288.511 132.857 290.641 130.72 290.641 128.085C290.641 125.45 288.511 123.314 285.884 123.314C283.257 123.314 281.128 125.45 281.128 128.085C281.128 130.72 283.257 132.857 285.884 132.857Z" fill="#3F3D56"/>
<path d="M270.411 134.482C273.038 134.482 275.167 132.345 275.167 129.71C275.167 127.075 273.038 124.939 270.411 124.939C267.784 124.939 265.654 127.075 265.654 129.71C265.654 132.345 267.784 134.482 270.411 134.482Z" fill="#FF7612"/>
<path d="M272.816 150.233C275.443 150.233 277.573 148.096 277.573 145.461C277.573 142.826 275.443 140.69 272.816 140.69C270.189 140.69 268.06 142.826 268.06 145.461C268.06 148.096 270.189 150.233 272.816 150.233Z" fill="#FF7612"/>
<path d="M250.562 150.556C253.189 150.556 255.319 148.42 255.319 145.785C255.319 143.149 253.189 141.013 250.562 141.013C247.935 141.013 245.806 143.149 245.806 145.785C245.806 148.42 247.935 150.556 250.562 150.556Z" fill="#3F3D56"/>
<path d="M224.256 182.881C224.256 182.881 228.729 171.024 245.163 174.298L224.256 182.881Z" fill="#3F3D56"/>
<path d="M220.111 178.734C220.111 178.734 226.989 168.1 214.631 156.75L220.111 178.734Z" fill="#3F3D56"/>
<path d="M332.721 184.38L324.847 181.263L316.973 178.146L323.601 172.864L330.229 167.582L331.475 175.981L332.721 184.38Z" fill="#F2F2F2"/>
<path d="M15.7483 130.558L7.87437 127.441L0 124.325L6.62794 119.043L13.2559 113.76L14.5023 122.159L15.7483 130.558Z" fill="#F2F2F2"/>
<path d="M293.512 230.336L285.638 227.219L277.764 224.102L284.392 218.82L291.02 213.538L292.266 221.937L293.512 230.336Z" fill="#F2F2F2"/>
<path d="M336 259.629L328.563 263.686L321.127 267.742L321.343 259.254L321.559 250.765L328.78 255.197L336 259.629Z" fill="#F2F2F2"/>
<path d="M55.7601 97.3365L48.3232 101.393L40.8867 105.449L41.103 96.9606L41.3193 88.4717L48.5399 92.9041L55.7601 97.3365Z" fill="#F2F2F2"/>
</g>
<defs>
<clipPath id="clip0_149_1281">
<rect width="336" height="325" fill="white"/>
</clipPath>
</defs>
</svg>
