<svg width="164" height="47" viewBox="0 0 164 47" fill="none" xmlns="http://www.w3.org/2000/svg">
<path d="M70.12 36.192C67.912 36.192 65.7787 36.064 63.72 35.808V12.816C64.808 12.5813 65.9813 12.4 67.24 12.272C68.5093 12.144 69.72 12.08 70.872 12.08C79.4907 12.08 83.8 16.1067 83.8 24.16C83.8 28.2773 82.6693 31.312 80.408 33.264C78.1467 35.216 74.7173 36.192 70.12 36.192ZM70.936 33.296C73.0267 33.296 74.7493 32.9813 76.104 32.352C77.4693 31.712 78.488 30.72 79.16 29.376C79.832 28.0213 80.168 26.2773 80.168 24.144C80.168 20.9867 79.4107 18.672 77.896 17.2C76.392 15.7173 74.0987 14.976 71.016 14.976C69.9173 14.976 68.6587 15.0827 67.24 15.296V33.088C68.2853 33.2267 69.5173 33.296 70.936 33.296ZM87.948 36V18.592H91.404V36H87.948ZM89.676 15.216C88.9293 15.216 88.364 15.0507 87.98 14.72C87.6067 14.3787 87.42 13.8987 87.42 13.28C87.42 12.6507 87.612 12.1653 87.996 11.824C88.38 11.4827 88.94 11.312 89.676 11.312C90.412 11.312 90.972 11.4827 91.356 11.824C91.74 12.1653 91.932 12.6507 91.932 13.28C91.932 13.8987 91.74 14.3787 91.356 14.72C90.9827 15.0507 90.4227 15.216 89.676 15.216ZM110.612 28.352H98.8358C98.8891 29.6213 99.1344 30.6453 99.5718 31.424C100.02 32.192 100.686 32.7573 101.572 33.12C102.457 33.472 103.604 33.648 105.012 33.648C106.441 33.648 107.998 33.4187 109.684 32.96V35.616C107.924 36.0853 106.212 36.32 104.548 36.32C101.465 36.32 99.1611 35.5947 97.6358 34.144C96.1211 32.6827 95.3638 30.4 95.3638 27.296C95.3638 25.3547 95.6678 23.7173 96.2758 22.384C96.8944 21.04 97.7851 20.0267 98.9478 19.344C100.121 18.6613 101.529 18.32 103.172 18.32C105.582 18.32 107.422 19.0933 108.692 20.64C109.972 22.176 110.612 24.4267 110.612 27.392V28.352ZM103.14 20.64C101.753 20.64 100.697 21.0827 99.9718 21.968C99.2464 22.8533 98.8624 24.2667 98.8198 26.208H107.348C107.305 24.2667 106.932 22.8533 106.228 21.968C105.534 21.0827 104.505 20.64 103.14 20.64ZM122.423 33.424C123.052 33.424 123.788 33.3333 124.631 33.152V35.952C123.66 36.1867 122.641 36.304 121.575 36.304C119.537 36.304 117.98 35.7973 116.903 34.784C115.836 33.7707 115.303 32.2187 115.303 30.128V21.376H112.007V18.592H115.303L115.911 12.32H118.759V18.592H124.407V21.376H118.759V29.536C118.759 30.944 119.052 31.9467 119.639 32.544C120.236 33.1307 121.164 33.424 122.423 33.424ZM127.573 36V18.592H131.029V36H127.573ZM129.301 15.216C128.554 15.216 127.989 15.0507 127.605 14.72C127.232 14.3787 127.045 13.8987 127.045 13.28C127.045 12.6507 127.237 12.1653 127.621 11.824C128.005 11.4827 128.565 11.312 129.301 11.312C130.037 11.312 130.597 11.4827 130.981 11.824C131.365 12.1653 131.557 12.6507 131.557 13.28C131.557 13.8987 131.365 14.3787 130.981 14.72C130.608 15.0507 130.048 15.216 129.301 15.216ZM144.845 12.624C143.394 12.624 142.327 12.9387 141.645 13.568C140.973 14.1973 140.637 15.216 140.637 16.624V18.592H146.269V21.376H140.637V36H137.181V21.376H133.885V18.592H137.181V16.784C137.181 14.5333 137.794 12.8107 139.021 11.616C140.258 10.4213 142.055 9.824 144.413 9.824C145.223 9.824 146.087 9.89333 147.005 10.032V12.816C146.269 12.688 145.549 12.624 144.845 12.624ZM160.337 18.592H163.76L154.001 43.04H150.577L153.409 36H152.481L145.553 18.592H149.201L154.705 33.152L160.337 18.592Z" fill="#094C62"/>
<g clip-path="url(#clip0_159_327)">
<path d="M20.8701 26.0702C17.7701 21.7802 13.3701 19.8702 8.29012 19.2202C7.84012 19.1602 7.23012 18.9102 7.09012 19.7502C6.40012 24.0002 6.00012 28.1702 7.77012 32.2102C10.2501 37.8602 14.6901 40.9002 20.7701 41.6502C21.1601 41.7002 21.5801 41.6502 21.8301 42.0702C22.8398 43.5975 24.2146 44.8487 25.8301 45.7102C26.0101 45.8202 26.1801 45.9502 26.3701 46.0802C26.1301 46.4402 25.8001 46.3202 25.5401 46.3202C21.4301 46.3202 17.3201 46.5102 13.2101 46.3202C9.87077 46.2123 6.69153 44.8636 4.29324 42.5375C1.89495 40.2113 0.449841 37.0747 0.240121 33.7402C-0.139879 26.6402 -0.0198794 19.5202 0.240121 12.4202C0.490121 6.31019 5.76012 1.00019 11.9101 0.260194C15.8599 -0.0365099 19.8245 -0.0832698 23.7801 0.120194C23.9475 0.318288 24.0685 0.551297 24.1343 0.802177C24.2 1.05306 24.2088 1.31546 24.1601 1.57019C24.1601 8.31019 24.1601 15.0502 24.1601 21.7802C24.1601 22.1902 24.0601 22.5902 24.0701 23.0002L23.3901 24.2802C23.0367 24.9595 22.7358 25.6649 22.4901 26.3902C22.3601 26.6902 22.3401 27.1302 21.9701 27.1802C21.6001 27.2302 21.3801 26.8202 21.2001 26.5002C21.1318 26.3292 21.0176 26.1804 20.8701 26.0702Z" fill="#F1761C"/>
<path d="M24.0803 23.0001C23.6803 22.5601 23.8403 22.0001 23.8403 21.5101C23.8403 14.3834 23.8203 7.25345 23.7803 0.120112C28.3303 0.120112 32.9003 -0.329888 37.4203 0.450112C40.2317 0.973654 42.7921 2.40965 44.7048 4.53569C46.6175 6.66172 47.7758 9.35913 48.0003 12.2101C48.4411 19.4668 48.4411 26.7435 48.0003 34.0001C47.7946 37.2953 46.3428 40.3888 43.9396 42.6527C41.5364 44.9166 38.3619 46.1813 35.0603 46.1901C33.3302 46.1792 31.6202 45.8193 30.0325 45.132C28.4449 44.4447 27.0122 43.4441 25.8203 42.1901C25.6803 42.0401 25.4303 41.9001 25.5603 41.6401C25.6903 41.3801 25.9403 41.4601 26.1503 41.4201C30.5869 40.6381 34.6085 38.324 37.5141 34.8812C40.4197 31.4384 42.025 27.0851 42.0503 22.5801C42.0517 19.688 41.6991 16.8066 41.0003 14.0001C40.8803 13.5101 40.8003 13.0901 40.0903 13.2001C35.0903 14.0401 30.4103 15.7101 26.8303 19.5601C25.8703 20.6301 25.0003 21.8501 24.0803 23.0001Z" fill="#44BDA9"/>
<path d="M39.1701 21.4202C39.3315 24.3273 38.7174 27.225 37.3908 29.8167C36.0641 32.4084 34.0727 34.6011 31.6202 36.1702C29.7031 37.5311 27.461 38.3624 25.1202 38.5802C24.6502 38.5802 24.3002 38.6402 24.3202 38.0302C24.3802 34.2602 24.1202 30.4602 25.5702 26.8402C27.8202 21.2102 32.1702 18.1002 37.8302 16.5302C38.5802 16.3202 38.8302 16.6702 38.9002 17.3402C39.0922 18.6916 39.1824 20.0554 39.1701 21.4202Z" fill="#44BCA9"/>
<path d="M20.6798 35.71V37.05C20.6798 38.74 20.6798 38.74 18.9698 38.35C16.4495 37.8061 14.1715 36.4649 12.473 34.5251C10.7746 32.5853 9.74605 30.15 9.5398 27.58C9.43986 26.2152 9.43986 24.8449 9.5398 23.48C9.6098 22.48 9.9898 22.43 10.8098 22.63C17.6098 24.29 20.9698 29.85 20.6998 35.16C20.6998 35.34 20.6998 35.53 20.6998 35.71H20.6798Z" fill="#F2771B"/>
<path d="M20.8701 26.07C20.8701 26.07 20.9501 26.07 20.9801 26.07C22.0601 27.07 22.0701 27.07 22.6301 25.66C22.7395 25.1234 23.0078 24.6321 23.4001 24.25C23.0001 25.41 22.5901 26.57 22.1401 27.87C21.5673 27.3908 21.1296 26.7703 20.8701 26.07Z" fill="#DB8E4F"/>
</g>
<defs>
<clipPath id="clip0_159_327">
<rect width="48.34" height="46.41" fill="white"/>
</clipPath>
</defs>
</svg>
