<svg width="319" height="213" viewBox="0 0 319 213" fill="none" xmlns="http://www.w3.org/2000/svg">
<g clip-path="url(#clip0_149_740)">
<path d="M300.007 52.2075C300.932 51.048 301.772 49.8255 302.522 48.5491L284.781 45.6733L303.969 45.8127C305.81 41.8561 306.815 37.5699 306.921 33.2164C307.027 28.8629 306.233 24.5338 304.587 20.4941L278.845 33.687L302.585 16.4473C300.361 12.6506 297.369 9.34712 293.796 6.74256C290.223 4.138 286.145 2.28817 281.817 1.3083C277.489 0.328434 273.003 0.239517 268.638 1.04709C264.274 1.85466 260.124 3.54142 256.448 6.0023C252.772 8.46319 249.649 11.6455 247.272 15.3509C244.895 19.0564 243.316 23.2057 242.633 27.5403C241.95 31.8749 242.178 36.302 243.303 40.5459C244.427 44.7897 246.424 48.7593 249.169 52.2075C247.732 54.0133 246.495 55.9664 245.481 58.0332L268.51 69.8535L243.956 61.7124C242.231 66.7474 241.804 72.128 242.714 77.3672C243.623 82.6064 245.841 87.5389 249.166 91.7181C245.729 96.0363 243.476 101.157 242.626 106.586C241.775 112.015 242.356 117.568 244.311 122.711C246.267 127.854 249.531 132.411 253.789 135.944C258.048 139.477 263.156 141.866 268.621 142.88C268.193 144.072 267.977 145.327 267.982 146.592C267.963 148.463 268.448 150.305 269.389 151.928C268.466 153.559 267.982 155.396 267.982 157.265C267.982 159.133 268.466 160.97 269.389 162.601C268.466 164.232 267.982 166.069 267.982 167.938C267.982 169.806 268.466 171.643 269.389 173.274C268.466 174.905 267.982 176.742 267.982 178.611C267.982 180.479 268.466 182.316 269.389 183.947C268.448 185.571 267.963 187.413 267.982 189.284C267.982 194.107 271.004 198.015 274.734 198.015C278.464 198.015 281.486 194.107 281.486 189.284C281.504 187.413 281.017 185.571 280.075 183.947C281 182.317 281.486 180.479 281.486 178.611C281.486 176.742 281 174.904 280.075 173.274C281 171.644 281.486 169.806 281.486 167.938C281.486 166.069 281 164.231 280.075 162.601C281 160.971 281.486 159.134 281.486 157.265C281.486 155.396 281 153.559 280.075 151.928C281.017 150.305 281.504 148.463 281.486 146.592C281.49 145.309 281.268 144.036 280.829 142.83C286.261 141.773 291.329 139.357 295.546 135.812C299.763 132.267 302.988 127.711 304.913 122.582C306.837 117.453 307.397 111.922 306.538 106.518C305.679 101.114 303.431 96.0178 300.007 91.7181C304.492 86.0863 306.93 79.1286 306.93 71.9628C306.93 64.7971 304.492 57.8394 300.007 52.2075Z" fill="#F2F2F2"/>
<path d="M193.058 86.2126C192.442 85.4363 191.88 84.6191 191.378 83.7667L203.24 81.8426L190.411 81.9345C189.18 79.2891 188.508 76.4233 188.437 73.5125C188.366 70.6016 188.897 67.7071 189.997 65.006L207.213 73.829L191.339 62.2993C192.823 59.7554 194.823 57.5413 197.213 55.795C199.602 54.0488 202.331 52.8079 205.228 52.1499C208.124 51.4918 211.127 51.4307 214.049 51.9704C216.971 52.5101 219.748 53.6389 222.209 55.2865C224.669 56.9341 226.759 59.065 228.349 61.5463C229.939 64.0275 230.994 66.8059 231.448 69.7079C231.902 72.6098 231.746 75.5732 230.989 78.4129C230.232 81.2526 228.891 83.9077 227.049 86.2126C228.012 87.4193 228.839 88.7254 229.516 90.1082L214.116 98.0121L230.543 92.5659C231.697 95.933 231.983 99.5315 231.374 103.035C230.765 106.539 229.281 109.837 227.055 112.631C229.355 115.518 230.862 118.942 231.432 122.573C232.001 126.203 231.613 129.917 230.306 133.356C228.998 136.795 226.815 139.843 223.968 142.206C221.12 144.569 217.704 146.166 214.05 146.844C214.335 147.641 214.479 148.48 214.476 149.325C214.487 150.573 214.162 151.801 213.533 152.883C214.151 153.973 214.476 155.201 214.476 156.451C214.476 157.7 214.151 158.929 213.533 160.019C214.151 161.109 214.476 162.338 214.476 163.588C214.476 164.838 214.151 166.067 213.533 167.158C214.151 168.248 214.476 169.476 214.476 170.726C214.476 171.975 214.151 173.204 213.533 174.294C214.161 175.376 214.487 176.604 214.476 177.852C214.476 181.074 212.456 183.689 209.974 183.689C207.493 183.689 205.473 181.074 205.473 177.852C205.462 176.604 205.787 175.376 206.415 174.294C205.797 173.204 205.473 171.975 205.473 170.726C205.473 169.476 205.797 168.248 206.415 167.158C205.797 166.067 205.473 164.838 205.473 163.588C205.473 162.338 205.797 161.109 206.415 160.019C205.797 158.929 205.473 157.7 205.473 156.451C205.473 155.201 205.797 153.973 206.415 152.883C205.787 151.801 205.462 150.573 205.473 149.325C205.47 148.467 205.619 147.615 205.914 146.808C202.281 146.102 198.892 144.487 196.072 142.116C193.252 139.746 191.095 136.7 189.807 133.27C188.52 129.841 188.145 126.142 188.719 122.528C189.293 118.914 190.796 115.506 193.085 112.631C190.087 108.865 188.458 104.213 188.458 99.4218C188.458 94.6307 190.087 89.9787 193.085 86.2126H193.058Z" fill="#F2F2F2"/>
<path d="M168.699 212.5C251.708 212.5 319 204.138 319 193.822C319 183.507 251.708 175.145 168.699 175.145C85.6903 175.145 18.3984 183.507 18.3984 193.822C18.3984 204.138 85.6903 212.5 168.699 212.5Z" fill="#F2F2F2"/>
<path d="M214.856 151.813C214.856 152.406 214.838 152.999 214.805 153.568C214.805 153.654 214.805 153.737 214.805 153.823C214.645 156.327 214.184 158.804 213.434 161.202C213.413 161.276 213.386 161.356 213.362 161.43C212.592 163.817 211.56 166.112 210.283 168.276L210.154 168.489C208.782 170.769 207.172 172.902 205.352 174.851L205.166 175.047C203.121 177.215 200.855 179.171 198.405 180.882C198.321 180.944 198.234 181.006 198.15 181.062C195.583 182.837 192.854 184.37 189.996 185.64C189.603 185.815 189.207 185.987 188.796 186.156L188.436 186.304C184.064 188.082 179.484 189.31 174.803 189.96L174.23 190.037C171.601 190.379 168.953 190.551 166.301 190.55C146.651 190.55 129.726 181.234 122.089 167.831C121.575 166.936 121.106 166.023 120.681 165.092L120.507 164.709C118.886 161.065 117.963 157.156 117.786 153.179C117.786 153.082 117.786 152.987 117.786 152.883C117.786 152.527 117.771 152.168 117.771 151.81C117.769 149.038 118.137 146.278 118.863 143.6C118.884 143.517 118.905 143.437 118.929 143.357C119.692 140.629 120.801 138.008 122.23 135.554C122.269 135.486 122.308 135.415 122.35 135.347C123.758 132.971 125.424 130.754 127.319 128.735C127.369 128.674 127.422 128.616 127.478 128.561L127.502 128.537C127.74 128.288 127.98 128.036 128.226 127.79L128.595 127.422C128.838 127.182 129.087 126.948 129.336 126.711H129.351C129.951 126.153 130.562 125.613 131.185 125.089C132.049 124.365 132.952 123.669 133.885 122.999L134.086 122.851C136.564 121.105 139.198 119.585 141.955 118.312C142.036 118.273 142.12 118.232 142.201 118.199C145.307 116.782 148.541 115.656 151.861 114.837C151.966 114.807 152.068 114.784 152.161 114.76C156.272 113.768 160.48 113.217 164.711 113.114C164.852 113.114 164.993 113.114 165.137 113.114C165.521 113.114 165.908 113.1 166.295 113.1C185.768 113.1 202.564 122.252 210.301 135.453C210.37 135.572 210.436 135.691 210.505 135.806L210.805 136.325C210.97 136.622 211.126 136.918 211.282 137.232C211.354 137.375 211.423 137.514 211.492 137.656C211.534 137.739 211.579 137.822 211.618 137.908C212.75 140.234 213.599 142.684 214.148 145.207C214.172 145.305 214.19 145.4 214.211 145.504C214.639 147.58 214.855 149.694 214.856 151.813Z" fill="#FF7612"/>
<g opacity="0.2">
<path d="M210.514 135.78C208.296 134.95 206.095 134.086 203.912 133.188C190.292 127.618 177.184 120.896 164.735 113.097H165.161C179.434 121.996 194.562 129.48 210.325 135.439C210.382 135.554 210.448 135.664 210.514 135.78Z" fill="#F2F2F2"/>
</g>
<g opacity="0.2">
<path d="M214.208 145.468C208.807 143.689 203.462 141.713 198.174 139.538C184.414 133.915 171.177 127.116 158.613 119.218C156.245 117.73 153.994 116.263 151.861 114.816L152.161 114.742C154.244 116.147 156.445 117.578 158.763 119.035C176.095 129.915 194.69 138.694 214.145 145.183C214.169 145.278 214.187 145.373 214.208 145.468Z" fill="#F2F2F2"/>
</g>
<g opacity="0.2">
<path d="M214.805 153.567C214.805 153.653 214.805 153.739 214.805 153.822C207.265 151.551 199.817 148.915 192.463 145.913C178.7 140.284 165.461 133.48 152.896 125.578C148.92 123.078 145.271 120.63 141.964 118.293L142.21 118.178C145.49 120.493 149.112 122.921 153.043 125.394C172.265 137.466 193.037 146.942 214.805 153.567Z" fill="#F2F2F2"/>
</g>
<g opacity="0.2">
<path d="M213.419 161.199C213.398 161.279 213.371 161.356 213.347 161.433C204.303 158.883 195.414 155.824 186.723 152.272C172.962 146.646 159.724 139.843 147.162 131.94C142.222 128.836 137.79 125.806 133.886 122.981L134.087 122.835C137.988 125.649 142.393 128.664 147.309 131.756C167.811 144.636 190.073 154.551 213.419 161.199Z" fill="#F2F2F2"/>
</g>
<g opacity="0.2">
<path d="M210.268 168.276L210.139 168.489C200.227 165.809 190.494 162.517 180.997 158.635C167.236 153.006 153.998 146.203 141.433 138.303C136.14 134.973 131.422 131.727 127.329 128.73C127.377 128.673 127.431 128.614 127.488 128.558C131.587 131.552 136.302 134.783 141.592 138.119C157.308 148.006 180.847 160.307 210.268 168.276Z" fill="#F2F2F2"/>
</g>
<g opacity="0.2">
<path d="M205.341 174.851L205.155 175.047C194.986 172.333 185.004 168.976 175.272 164.997C161.51 159.369 148.272 152.566 135.708 144.665C130.69 141.504 126.189 138.424 122.23 135.554C122.269 135.486 122.308 135.418 122.351 135.35C126.309 138.222 130.822 141.312 135.855 144.478C151.723 154.46 175.548 166.891 205.341 174.851Z" fill="#F2F2F2"/>
</g>
<g opacity="0.2">
<path d="M198.394 180.882C198.31 180.944 198.223 181.006 198.139 181.062C188.416 178.409 178.867 175.168 169.546 171.359C155.784 165.732 142.546 158.929 129.982 151.027C125.931 148.477 122.213 145.987 118.854 143.6C118.875 143.52 118.897 143.44 118.921 143.36C122.303 145.753 126.045 148.273 130.132 150.843C145.782 160.686 169.171 172.91 198.394 180.882Z" fill="#F2F2F2"/>
</g>
<g opacity="0.2">
<path d="M188.793 186.156L188.433 186.304C180.083 183.874 171.869 181.009 163.826 177.721C156.023 174.534 148.338 170.938 140.842 166.974C135.2 163.986 129.673 160.791 124.262 157.389C121.999 155.966 119.844 154.563 117.798 153.179C117.798 153.081 117.798 152.987 117.798 152.883C119.894 154.296 122.104 155.735 124.427 157.199C129.357 160.303 135.059 163.642 141.469 167.013C156.55 174.954 172.405 181.368 188.793 186.156Z" fill="#F2F2F2"/>
</g>
<g opacity="0.2">
<path d="M174.803 189.959L174.23 190.036C168.794 188.24 163.412 186.254 158.085 184.08C146.557 179.366 135.394 173.822 124.688 167.493C123.351 166.702 122.021 165.902 120.697 165.091L120.522 164.709C121.981 165.606 123.499 166.52 125.078 167.451C140.79 176.69 157.461 184.236 174.803 189.959Z" fill="#F2F2F2"/>
</g>
<path opacity="0.1" d="M189.985 185.64C189.591 185.814 189.195 185.986 188.784 186.155L188.424 186.304C184.056 188.08 179.48 189.308 174.803 189.959L174.23 190.036C171.601 190.379 168.953 190.55 166.301 190.549C146.651 190.549 129.726 181.234 122.089 167.831C122.947 167.7 123.808 167.59 124.673 167.493L125.063 167.451C127.385 167.208 129.726 167.072 132.061 166.974C134.982 166.823 137.909 166.823 140.83 166.974C141.034 166.974 141.238 166.997 141.43 167.015C143.42 167.155 145.397 167.44 147.345 167.869C153.271 169.197 158.703 172.082 164.087 174.866C172.402 179.153 180.904 183.333 189.985 185.64Z" fill="black"/>
<path opacity="0.1" d="M210.313 135.427C202.577 122.225 185.781 113.073 166.308 113.073C165.921 113.073 165.534 113.073 165.149 113.073H164.723C160.492 113.174 156.285 113.725 152.174 114.718L151.873 114.792C148.555 115.614 145.321 116.74 142.214 118.154L141.967 118.27C139.21 119.544 136.576 121.064 134.099 122.812L133.898 122.957C131.592 124.599 129.454 126.46 127.515 128.513C127.263 131.042 126.831 133.517 125.715 135.797C124.928 137.398 124.115 138.94 125.228 140.541C125.976 141.617 127.593 142.981 128.97 143.034C132.755 143.185 134.858 138.187 136.641 135.696C139.372 131.884 143.42 129.236 147.375 126.678C149.065 125.584 150.772 124.481 152.678 123.826C154.285 123.312 155.956 123.022 157.644 122.963C162.245 122.708 166.947 123.399 171.148 125.281C175.95 127.431 180.211 131.137 185.451 131.65C187.824 131.881 190.252 131.427 192.578 131.964C196.71 132.921 199.576 136.773 203.597 138.119C206.199 138.99 208.999 138.712 211.646 137.858C211.304 137.146 210.936 136.445 210.544 135.756C210.448 135.664 210.382 135.554 210.313 135.427Z" fill="black"/>
<path d="M92.6204 150.283C91.198 151.765 89.6015 153.067 88.134 154.505C82.6994 159.841 79.2153 166.776 74.3298 172.589C73.0124 174.158 71.581 175.664 70.5997 177.454C69.6184 179.245 69.1262 181.424 69.8284 183.339C70.4286 184.982 71.8121 186.212 73.1565 187.348C73.9857 188.1 74.8965 188.759 75.8723 189.313C78.129 190.499 80.7998 190.564 83.3566 190.603C84.767 190.624 86.4865 190.466 87.0897 189.206C84.8042 188.13 82.6991 186.715 80.8478 185.008C79.7885 184.03 78.7892 182.909 78.36 181.543C77.6278 179.212 78.7111 176.675 80.2446 174.762C81.7781 172.85 83.7557 171.317 85.2531 169.379C86.7506 167.44 87.7169 165.213 89.5204 163.63C90.7688 162.536 92.3203 161.851 93.7217 160.941C95.7683 159.61 97.4578 157.819 99.1234 156.046L107.976 146.639C108.19 146.459 108.336 146.214 108.393 145.943C108.429 145.59 108.165 145.281 107.913 145.026C105.986 143.073 102.355 139.643 99.7085 142.216C97.1578 144.694 95.0901 147.71 92.6204 150.283Z" fill="#A0616A"/>
<path opacity="0.1" d="M92.6204 150.283C91.198 151.765 89.6015 153.067 88.134 154.505C82.6994 159.841 79.2153 166.776 74.3298 172.589C73.0124 174.158 71.581 175.664 70.5997 177.454C69.6184 179.245 69.1262 181.424 69.8284 183.339C70.4286 184.982 71.8121 186.212 73.1565 187.348C73.9857 188.1 74.8965 188.759 75.8723 189.313C78.129 190.499 80.7998 190.564 83.3566 190.603C84.767 190.624 86.4865 190.466 87.0897 189.206C84.8042 188.13 82.6991 186.715 80.8478 185.008C79.7885 184.03 78.7892 182.909 78.36 181.543C77.6278 179.212 78.7111 176.675 80.2446 174.762C81.7781 172.85 83.7557 171.317 85.2531 169.379C86.7506 167.44 87.7169 165.213 89.5204 163.63C90.7688 162.536 92.3203 161.851 93.7217 160.941C95.7683 159.61 97.4578 157.819 99.1234 156.046L107.976 146.639C108.19 146.459 108.336 146.214 108.393 145.943C108.429 145.59 108.165 145.281 107.913 145.026C105.986 143.073 102.355 139.643 99.7085 142.216C97.1578 144.694 95.0901 147.71 92.6204 150.283Z" fill="black"/>
<path d="M105.272 133.182C107.058 132.809 108.982 133.748 110.707 133.164C111.685 132.832 112.433 132.061 113.138 131.314L116.019 128.281C116.832 127.425 117.66 126.55 118.161 125.483C118.606 124.54 118.762 123.499 118.978 122.48C119.506 119.871 120.409 117.196 122.393 115.4C124.865 113.153 128.677 112.732 131.852 113.805C135.027 114.878 137.61 117.274 139.51 120.013C137.811 122.029 135.909 123.891 134.213 125.907C133.671 126.613 133.034 127.242 132.32 127.777C131.529 128.254 130.679 128.626 129.79 128.883C126.738 129.951 123.488 131.495 122.231 134.445C121.792 135.471 121.63 136.589 121.39 137.677C120.928 139.734 120.085 141.771 118.561 143.244C117.036 144.718 114.734 145.524 112.703 144.887C110.455 144.181 109.078 142.005 107.919 139.977C106.688 137.861 105.795 135.568 105.272 133.182Z" fill="#A0616A"/>
<path opacity="0.1" d="M105.272 133.182C107.058 132.809 108.982 133.748 110.707 133.164C111.685 132.832 112.433 132.061 113.138 131.314L116.019 128.281C116.832 127.425 117.66 126.55 118.161 125.483C118.606 124.54 118.762 123.499 118.978 122.48C119.506 119.871 120.409 117.196 122.393 115.4C124.865 113.153 128.677 112.732 131.852 113.805C135.027 114.878 137.61 117.274 139.51 120.013C137.811 122.029 135.909 123.891 134.213 125.907C133.671 126.613 133.034 127.242 132.32 127.777C131.529 128.254 130.679 128.626 129.79 128.883C126.738 129.951 123.488 131.495 122.231 134.445C121.792 135.471 121.63 136.589 121.39 137.677C120.928 139.734 120.085 141.771 118.561 143.244C117.036 144.718 114.734 145.524 112.703 144.887C110.455 144.181 109.078 142.005 107.919 139.977C106.688 137.861 105.795 135.568 105.272 133.182Z" fill="black"/>
<path d="M183.449 121.407C194.726 125.394 205.937 130.117 215.258 137.564C219.525 140.977 223.328 144.914 227.385 148.569C229.51 150.484 231.703 152.32 233.897 154.158L249.469 167.202C251.395 168.818 253.331 170.437 255.47 171.789C260.503 174.985 266.505 176.609 271.432 180.046C271.423 181.82 271.718 183.583 272.303 185.26C272.526 185.878 272.948 186.406 273.504 186.765C274.06 187.123 274.719 187.291 275.381 187.244C283.142 186.802 291.01 190.523 298.828 189.586C299.053 189.562 299.27 189.486 299.461 189.365C299.652 189.244 299.812 189.081 299.929 188.889C300.454 187.982 299.557 187.134 298.771 186.592L288.156 179.251C286.407 178.041 284.657 176.832 282.875 175.673C276.429 171.486 269.545 167.932 263.57 163.126C262.294 162.1 261.067 161.021 259.837 159.939C253.331 154.229 246.822 148.513 240.655 142.447C231.691 133.627 223.214 123.787 214.328 114.89C213.483 114.003 212.572 113.179 211.603 112.427C210.655 111.759 209.661 111.158 208.629 110.627L197.349 104.505C195.641 103.577 193.748 102.619 191.842 102.984C191.37 102.869 190.876 102.871 190.405 102.99C189.934 103.109 189.5 103.341 189.141 103.666C188.415 104.327 187.941 105.202 187.461 106.058C186.834 107.096 186.34 108.206 185.99 109.364C185.588 110.938 185.72 112.625 185.255 114.173C184.955 115.196 184.397 116.129 184.019 117.137C183.523 118.504 183.328 119.96 183.449 121.407Z" fill="#A0616A"/>
<path opacity="0.1" d="M183.449 121.407C194.726 125.394 205.937 130.117 215.258 137.564C219.525 140.977 223.328 144.914 227.385 148.569C229.51 150.484 231.703 152.32 233.897 154.158L249.469 167.202C251.395 168.818 253.331 170.437 255.47 171.789C260.503 174.985 266.505 176.609 271.432 180.046C271.423 181.82 271.718 183.583 272.303 185.26C272.526 185.878 272.948 186.406 273.504 186.765C274.06 187.123 274.719 187.291 275.381 187.244C283.142 186.802 291.01 190.523 298.828 189.586C299.053 189.562 299.27 189.486 299.461 189.365C299.652 189.244 299.812 189.081 299.929 188.889C300.454 187.982 299.557 187.134 298.771 186.592L288.156 179.251C286.407 178.041 284.657 176.832 282.875 175.673C276.429 171.486 269.545 167.932 263.57 163.126C262.294 162.1 261.067 161.021 259.837 159.939C253.331 154.229 246.822 148.513 240.655 142.447C231.691 133.627 223.214 123.787 214.328 114.89C213.483 114.003 212.572 113.179 211.603 112.427C210.655 111.759 209.661 111.158 208.629 110.627L197.349 104.505C195.641 103.577 193.748 102.619 191.842 102.984C191.37 102.869 190.876 102.871 190.405 102.99C189.934 103.109 189.5 103.341 189.141 103.666C188.415 104.327 187.941 105.202 187.461 106.058C186.834 107.096 186.34 108.206 185.99 109.364C185.588 110.938 185.72 112.625 185.255 114.173C184.955 115.196 184.397 116.129 184.019 117.137C183.523 118.504 183.328 119.96 183.449 121.407Z" fill="black"/>
<path d="M106.931 156.239C113.944 156.239 119.628 150.623 119.628 143.695C119.628 136.767 113.944 131.151 106.931 131.151C99.919 131.151 94.2344 136.767 94.2344 143.695C94.2344 150.623 99.919 156.239 106.931 156.239Z" fill="#A0616A"/>
<path d="M184.199 98.4005C185.973 98.4301 187.987 98.5665 189.103 99.9273C190.219 101.288 189.967 103.153 189.685 104.831C188.803 110.135 187.885 115.533 185.43 120.33C185.258 120.763 184.952 121.131 184.557 121.383C183.851 121.742 183.014 121.321 182.339 120.908C177.42 117.89 172.502 114.641 166.896 113.2C166.558 113.157 166.248 112.994 166.023 112.741C165.946 112.582 165.902 112.409 165.893 112.233C165.884 112.057 165.911 111.881 165.972 111.715C166.53 109.257 167.235 106.829 167.673 104.345C167.937 102.862 167.448 99.3047 168.778 98.3856C170.185 97.4073 174.239 98.2344 175.905 98.2611L184.199 98.4005Z" fill="#A0616A"/>
<path d="M190.171 122.883C201.449 126.871 212.66 131.593 221.966 139.038C226.233 142.453 230.035 146.39 234.093 150.046C236.217 151.961 238.411 153.796 240.605 155.631L256.176 168.676C258.103 170.289 260.038 171.91 262.178 173.259C267.232 176.467 273.233 178.086 278.143 181.507C278.134 183.282 278.428 185.047 279.013 186.725C279.237 187.342 279.659 187.87 280.215 188.229C280.771 188.587 281.43 188.755 282.092 188.708C289.852 188.264 297.721 191.987 305.538 191.051C305.764 191.026 305.981 190.95 306.172 190.828C306.363 190.707 306.523 190.543 306.64 190.351C307.165 189.461 306.267 188.596 305.481 188.053L294.867 180.716C293.117 179.506 291.368 178.296 289.585 177.137C283.151 172.951 276.267 169.396 270.293 164.594C269.017 163.568 267.79 162.486 266.559 161.406C260.053 155.696 253.544 149.981 247.375 143.915C238.414 135.095 229.936 125.255 221.051 116.343C220.201 115.467 219.287 114.655 218.317 113.912C217.368 113.247 216.374 112.646 215.343 112.115L204.062 105.993C202.355 105.065 200.461 104.108 198.556 104.472C198.084 104.356 197.59 104.358 197.119 104.476C196.648 104.595 196.213 104.826 195.855 105.151C195.129 105.812 194.655 106.69 194.174 107.547C193.548 108.583 193.054 109.693 192.704 110.849C192.302 112.424 192.434 114.111 191.969 115.661C191.669 116.684 191.11 117.618 190.732 118.626C190.241 119.989 190.05 121.441 190.171 122.883Z" fill="#A0616A"/>
<path d="M193.913 123.802L194.27 118.67C194.372 117.235 194.474 115.782 194.921 114.416C195.428 112.865 196.353 111.487 197.292 110.147C197.793 109.365 198.399 108.654 199.092 108.033C200.116 107.182 201.439 106.719 202.393 105.797C202.666 105.533 202.922 105.145 202.759 104.804C202.685 104.677 202.582 104.567 202.459 104.484C200.107 102.578 197.286 101.338 194.501 100.12L189.237 97.8193C187.023 100.784 184.769 103.841 183.629 107.357C183.456 107.981 183.241 108.594 182.983 109.189C182.308 110.579 181.027 111.593 180.214 112.91C179.448 114.149 179.13 115.599 178.827 117.019C178.647 117.852 178.473 118.741 178.776 119.539C179.112 120.428 179.977 121.003 180.763 121.522C184.247 123.778 187.926 126.106 192.082 126.426C192.844 126.482 193.859 126.859 194.102 126.129C194.273 125.64 193.874 124.401 193.913 123.802Z" fill="#3F3D56"/>
<path d="M89.9043 138.222C88.5899 139.963 89.4722 142.498 90.8346 144.202C92.197 145.907 94.0186 147.336 94.7808 149.373C96.6084 154.244 91.5098 159.156 91.6839 164.339C91.8399 168.958 95.9722 172.305 99.4862 175.373C106.953 181.895 113.332 190.985 112.492 200.804C115.889 199.822 118.823 197.682 120.775 194.765C121.915 197.236 122.396 199.954 122.173 202.66C130 197.368 134.456 187.585 133.277 178.29C132.715 173.891 130.999 169.601 131.266 165.178C131.41 162.779 132.133 160.458 132.655 158.11C133.321 155.082 133.653 151.993 133.646 148.895C133.646 145.361 132.982 141.436 130.162 139.263C127.761 137.416 124.46 137.354 121.417 137.369C118.203 137.389 114.989 137.404 111.781 137.603C108.507 137.804 105.131 138.872 101.908 138.952C98.3189 139.041 93.2624 133.775 89.9043 138.222Z" fill="#3F3D56"/>
<path d="M137.892 115.018C135.769 115.709 133.859 116.92 132.337 118.537C131.38 119.562 130.587 120.734 129.594 121.727C128.412 122.913 126.968 123.802 125.585 124.751C122.941 126.559 120.465 128.59 117.992 130.618L105.809 140.609C103.903 142.171 101.998 143.737 100.2 145.421C97.9824 147.496 95.9357 149.761 93.568 151.673C92.1816 152.794 90.6902 153.793 89.4178 155.041C88.2174 156.227 87.2451 157.594 86.2608 158.949C82.251 164.447 77.9434 169.728 73.3569 174.768C71.4093 176.912 69.3957 179.023 67.028 180.698C62.1185 184.193 58.3913 189.426 54.076 193.621C53.7099 193.977 53.3078 194.483 53.5329 194.943C53.667 195.163 53.882 195.324 54.133 195.391C57.29 196.553 60.0088 191.492 63.2978 192.21C64.7983 192.536 65.7196 193.938 66.7939 195.008C67.8682 196.078 69.7108 196.867 70.8331 195.844C70.4486 192.867 70.8401 189.843 71.9705 187.057C73.81 182.548 77.4591 178.993 81.3543 176.016C85.2495 173.04 89.4898 170.502 93.1479 167.244C99.2848 161.78 103.768 154.327 111.048 150.469C113.899 148.957 117.05 148.074 119.892 146.526C125.393 143.52 129.24 138.225 132.247 132.779C132.601 132.032 133.08 131.35 133.663 130.76C134.291 130.272 134.989 129.879 135.734 129.595C139.6 127.832 143.07 125.321 145.937 122.21C145.037 121.573 144.193 120.891 143.296 120.25C142.566 119.773 141.898 119.208 141.307 118.569C140.706 117.87 140.316 117.031 139.806 116.266C139.296 115.501 138.762 115.293 137.892 115.018Z" fill="#A0616A"/>
<path d="M170.677 115.934C169.885 115.305 169.858 114.155 169.897 113.138C170.027 110.019 170.155 106.901 170.281 103.785C170.368 101.588 170.581 99.127 172.259 97.6861C167.407 96.7236 162.516 95.9854 157.584 95.4715C155.628 95.2669 153.644 95.0979 151.693 95.3796C149.344 95.7176 147.141 96.69 144.974 97.6535C142.574 98.7208 140.158 99.797 138.006 101.294C137.178 101.927 136.314 102.512 135.419 103.049C133.787 103.939 131.911 104.235 130.153 104.828C126.089 106.194 122.692 109.015 120.631 112.735C118.57 116.454 117.995 120.802 119.019 124.92C119.62 123.387 120.04 121.783 120.742 120.292C121.444 118.801 122.48 117.393 123.953 116.631C125.489 115.842 127.344 115.848 129.016 116.302C130.687 116.755 132.191 117.63 133.691 118.513C137.034 120.514 140.449 122.851 142.036 126.376C145.338 123.95 148.714 121.632 152.021 119.195C153.455 118.143 154.91 117.081 156.573 116.444C158.758 115.605 161.155 115.554 163.499 115.51C165.843 115.465 168.385 115.335 170.677 115.934Z" fill="#FF6584"/>
<path d="M119.008 124.635L118.608 130.105L120.049 128.931L119.329 124.093L119.008 124.635Z" fill="#FF6584"/>
<path d="M64.9187 54.3922L60.2613 57.3095L63.0881 52.2458C62.287 51.614 61.2953 51.2645 60.2703 51.2526H60.1953C59.8717 51.2573 59.5483 51.2335 59.229 51.1814L57.6505 52.1717L58.3287 50.9561C57.2096 50.5698 56.2432 49.8433 55.5679 48.8808L52.741 50.6597L54.5265 47.4548C52.873 45.4951 50.6464 44.2944 48.1976 44.2944C45.2597 44.2944 42.6429 46.0199 40.9534 48.7089C40.453 49.5158 39.745 50.1771 38.9015 50.6256C38.058 51.074 37.1093 51.2934 36.152 51.2615H35.9929C32.7489 51.2615 30.1201 54.8932 30.1201 59.3759C30.1201 63.8585 32.7489 67.4903 35.9929 67.4903C36.7065 67.487 37.4087 67.313 38.0395 66.9833C39.1433 66.4532 40.3504 66.1665 41.5774 66.143C42.8044 66.1194 44.0219 66.3596 45.1457 66.8469C46.0964 67.2671 47.1261 67.4843 48.1676 67.4843C49.2091 67.4843 50.2388 67.2671 51.1895 66.8469C52.3052 66.3691 53.5119 66.134 54.7276 66.1575C55.9434 66.181 57.1398 66.4627 58.2357 66.9833C58.86 67.3061 59.5537 67.4759 60.2583 67.4784C63.5023 67.4784 66.1311 63.8437 66.1311 59.364C66.1569 57.6324 65.7399 55.9223 64.9187 54.3922Z" fill="#F2F2F2"/>
<path opacity="0.03" d="M56.1407 66.2659C54.4462 65.9471 52.694 66.135 51.1081 66.8054C50.1562 67.2224 49.126 67.4365 48.0846 67.434C47.0433 67.4314 46.0142 67.2122 45.0643 66.7906C43.9403 66.3038 42.7227 66.0641 41.4957 66.0881C40.2687 66.1122 39.0617 66.3994 37.9581 66.93C37.327 67.2584 36.6249 67.4314 35.9115 67.434C33.0306 67.434 30.6329 64.5671 30.1348 60.7841C30.7104 60.3697 31.1996 59.8493 31.5752 59.2514C33.2617 56.5624 35.8815 54.834 38.8194 54.834C41.7573 54.834 44.3411 56.5387 46.0216 59.201C46.5268 60.0066 47.2346 60.6693 48.076 61.1244C48.9175 61.5795 49.8639 61.8116 50.8231 61.7981H50.8981C53.1878 61.7981 55.1744 63.6154 56.1407 66.2659Z" fill="black"/>
<path d="M148.035 71.5552L145.712 72.999L147.123 70.4672C146.724 70.1515 146.229 69.9772 145.718 69.9721H145.694C145.533 69.9737 145.373 69.9618 145.214 69.9365L144.425 70.4286L144.764 69.8357C144.205 69.6435 143.723 69.2812 143.386 68.801L141.976 69.6904L142.876 68.0924C142.499 67.61 142.017 67.2174 141.466 66.9434C140.915 66.6694 140.309 66.521 139.692 66.5093C138.228 66.5093 136.922 67.369 136.091 68.7121C135.841 69.1152 135.487 69.4454 135.065 69.6689C134.643 69.8924 134.169 70.0011 133.691 69.9839H133.612C131.995 69.9839 130.684 71.7954 130.684 74.0307C130.684 76.2661 131.995 78.0776 133.612 78.0776C133.968 78.0761 134.318 77.9896 134.633 77.8256C135.183 77.5597 135.785 77.4159 136.397 77.4041C137.009 77.3923 137.617 77.5129 138.177 77.7574C138.649 77.9659 139.16 78.0749 139.677 78.0776C140.194 78.0779 140.705 77.9709 141.178 77.7633C141.734 77.5248 142.336 77.4075 142.942 77.4193C143.549 77.431 144.145 77.5716 144.692 77.8315C145.004 77.9923 145.351 78.0767 145.703 78.0776C147.321 78.0776 148.632 76.2661 148.632 74.0307C148.647 73.1691 148.441 72.3178 148.035 71.5552Z" fill="#F2F2F2"/>
<path opacity="0.03" d="M143.656 77.4784C142.812 77.3197 141.938 77.4137 141.148 77.7482C140.675 77.9537 140.164 78.0607 139.647 78.0625C139.125 78.063 138.608 77.9538 138.132 77.7423C137.571 77.4998 136.964 77.3806 136.352 77.3929C135.74 77.4052 135.138 77.5487 134.588 77.8134C134.273 77.9778 133.923 78.0643 133.567 78.0654C132.13 78.0654 130.936 76.6335 130.687 74.7479C130.973 74.5409 131.217 74.2812 131.404 73.983C132.247 72.64 133.552 71.7803 135.005 71.7803C136.457 71.7803 137.76 72.6311 138.606 73.9564C138.859 74.3591 139.213 74.6903 139.633 74.9179C140.054 75.1454 140.527 75.2615 141.007 75.2549H141.043C142.183 75.249 143.176 76.1562 143.656 77.4784Z" fill="black"/>
<path d="M159.199 25.961L162.929 28.3001L160.663 24.2296C161.305 23.7247 162.099 23.4451 162.92 23.4351H162.98C163.239 23.4374 163.498 23.4186 163.754 23.3787L165.02 24.1703L164.468 23.192C165.364 22.8835 166.138 22.3035 166.68 21.5347L168.946 22.9518L167.514 20.3844C168.838 18.8131 170.623 17.8525 172.586 17.8525C174.941 17.8525 177.036 19.2341 178.389 21.3894C178.79 22.0344 179.356 22.5632 180.03 22.9219C180.704 23.2807 181.462 23.4568 182.228 23.4321H182.354C184.952 23.4321 187.059 26.3405 187.059 29.9337C187.059 33.5269 184.958 36.4323 182.354 36.4323C181.783 36.4304 181.22 36.2921 180.715 36.0291C179.83 35.6028 178.861 35.3721 177.877 35.3531C176.892 35.3342 175.915 35.5274 175.013 35.9194C174.247 36.2565 173.418 36.4312 172.58 36.4323C171.753 36.4318 170.935 36.2601 170.179 35.9283C169.285 35.546 168.318 35.3579 167.345 35.3768C166.371 35.3957 165.412 35.6212 164.534 36.038C164.033 36.2951 163.476 36.4302 162.911 36.4323C160.312 36.4323 158.205 33.524 158.205 29.9337C158.194 28.5482 158.536 27.1821 159.199 25.961Z" fill="#F2F2F2"/>
<path opacity="0.03" d="M166.221 35.4748C167.579 35.2193 168.983 35.37 170.254 35.9077C171.015 36.2438 171.84 36.4176 172.674 36.4176C173.508 36.4176 174.333 36.2438 175.094 35.9077C175.996 35.5172 176.973 35.3249 177.957 35.3438C178.942 35.3627 179.91 35.5925 180.796 36.0174C181.301 36.2826 181.863 36.422 182.435 36.4235C184.742 36.4235 186.663 34.1259 187.065 31.0871C186.603 30.7548 186.21 30.337 185.91 29.8567C184.556 27.7043 182.459 26.3198 180.106 26.3198C177.753 26.3198 175.68 27.6866 174.326 29.8182C173.922 30.4609 173.356 30.9897 172.684 31.3533C172.012 31.7168 171.257 31.9029 170.491 31.8935H170.431C168.588 31.8964 167.001 33.3521 166.221 35.4748Z" fill="black"/>
<path d="M97.3012 92.391C97.1452 92.1568 96.3799 92.391 95.5937 92.898C95.4557 92.9899 95.3236 93.0848 95.2036 93.1796C94.6564 92.899 94.0664 92.7088 93.4571 92.6163L93.4901 92.5926C94.2836 92.0789 95.019 91.4825 95.6837 90.8138H93.9942L96.446 89.8829C96.7461 89.4115 96.8421 89.0172 96.677 88.7711C96.2329 88.113 94.0903 88.7474 91.8756 90.1942C90.8776 90.8227 89.9805 91.5952 89.2138 92.4859C87.4132 92.6934 86.1498 93.2152 86.1498 93.823C86.1498 94.244 86.75 94.6234 87.7253 94.8873L87.6683 94.9229C85.4656 96.3667 84.0372 98.0743 84.4813 98.7325C84.8714 99.3255 86.582 98.8867 88.4966 97.7868L87.2272 97.1938L89.2288 97.3302L89.2708 97.3035C89.4839 97.1642 89.6879 97.0219 89.886 96.8796L88.3855 96.1918L90.5852 96.34C91.0016 95.9995 91.3909 95.6278 91.7495 95.2282C93.7992 95.1215 95.4017 94.6353 95.6807 94.0068C95.8511 93.9303 96.0174 93.8452 96.1789 93.7518C96.4611 93.5706 96.7227 93.3599 96.9591 93.1233H96.3589L97.2322 92.7913C97.3282 92.6193 97.3612 92.48 97.3012 92.391Z" fill="#F2F2F2"/>
<path d="M39.0055 182.447C39.0125 183.461 38.912 184.474 38.7054 185.468C38.6634 185.654 38.6214 185.838 38.5794 186.016C37.46 190.448 34.3031 193.692 30.5369 193.899C30.4109 193.899 30.2849 193.899 30.1528 193.899C26.1706 193.899 22.8036 190.505 21.6902 185.829C21.6602 185.705 21.6332 185.58 21.6032 185.456C21.3916 184.462 21.286 183.45 21.2881 182.435C21.2881 176.102 25.2583 170.97 30.1528 170.97C35.0473 170.97 39.0055 176.114 39.0055 182.447Z" fill="#3F3D56"/>
<path opacity="0.1" d="M39.0055 182.447C39.0125 183.462 38.912 184.474 38.7054 185.468C38.6634 185.655 38.6214 185.839 38.5794 186.016C38.4443 186.016 38.3153 186.016 38.1803 186.002C37.2047 185.948 36.2353 185.816 35.2814 185.607C34.4353 185.868 33.5706 186.067 32.6946 186.2C32.0235 186.3 31.3472 186.363 30.669 186.387C30.4409 186.387 30.2128 186.387 29.9848 186.387C29.1728 186.388 28.3617 186.334 27.557 186.227C26.2565 186.056 24.9793 185.743 23.7489 185.293C23.074 185.514 22.3866 185.697 21.6902 185.839C21.6602 185.714 21.6332 185.59 21.6032 185.465C21.3916 184.472 21.286 183.459 21.2881 182.444C21.2881 176.111 25.2583 170.979 30.1528 170.979C35.0473 170.979 39.0055 176.114 39.0055 182.447Z" fill="black"/>
<path d="M57.9181 161.089C57.9194 158.308 57.2584 155.566 55.9885 153.084L45.5603 156.289L54.7131 150.97C53.1789 148.779 51.1659 146.956 48.8228 145.636C46.4797 144.316 43.8664 143.533 41.176 143.345C40.7463 142.695 40.2742 142.073 39.7626 141.483L24.776 146.088L37.0618 138.966C34.714 137.185 31.9579 136.003 29.0374 135.524C26.1169 135.046 23.1221 135.287 20.3182 136.225C17.5143 137.163 14.9878 138.77 12.9623 140.903C10.9369 143.036 9.475 145.629 8.70613 148.453L21.535 163.04L7.6048 153.102C4.06633 155.566 1.54389 159.206 0.498827 163.356C-0.546238 167.506 -0.0440834 171.89 1.91345 175.704C3.87098 179.519 7.15306 182.51 11.1594 184.13C15.1657 185.75 19.6286 185.891 23.7317 184.528C27.4384 185.869 31.4876 185.975 35.2612 184.83C37.8938 185.402 40.6227 185.383 43.247 184.776C45.8714 184.168 48.3245 182.987 50.4261 181.32C52.5276 179.652 54.2241 177.541 55.3908 175.14C56.5575 172.74 57.1648 170.111 57.1679 167.448C57.1679 167.051 57.1529 166.66 57.1259 166.262C57.6469 164.586 57.9139 162.843 57.9181 161.089Z" fill="#57B894"/>
<path opacity="0.1" d="M57.6055 164.392C52.0998 163.361 46.4541 163.29 40.9235 164.181C34.6636 165.207 28.2656 167.457 22.1437 165.812C18.5427 164.845 15.4397 162.613 11.9406 161.365C8.55095 160.199 4.89981 159.987 1.39544 160.754C0.0587418 163.909 -0.329738 167.379 0.276451 170.747C0.88264 174.115 2.45785 177.239 4.81373 179.746C7.16962 182.253 10.2065 184.036 13.5613 184.883C16.916 185.73 20.4467 185.605 23.7312 184.522C27.4373 185.865 31.4865 185.973 35.2607 184.83C37.8934 185.402 40.6222 185.383 43.2465 184.776C45.8709 184.168 48.324 182.987 50.4256 181.32C52.5271 179.652 54.2237 177.54 55.3904 175.14C56.5571 172.739 57.1643 170.111 57.1674 167.448C57.1674 167.051 57.1524 166.66 57.1254 166.262C57.3212 165.648 57.4815 165.024 57.6055 164.392Z" fill="black"/>
</g>
<defs>
<clipPath id="clip0_149_740">
<rect width="319" height="212" fill="white" transform="translate(0 0.5)"/>
</clipPath>
</defs>
</svg>
