<svg width="50" height="48" viewBox="0 0 50 48" fill="none" xmlns="http://www.w3.org/2000/svg">
<path d="M22.7405 42.003L24.3531 27.9447H14.1543L27.2598 5.99756L25.6473 20.0579H35.846L22.7405 42.003Z" fill="#FFDD09"/>
<path d="M22.7405 42.6628C22.6693 42.6628 22.5973 42.6526 22.5267 42.6313C22.209 42.5359 22.0067 42.2435 22.0423 41.9319L23.5712 28.6043H14.1543C13.905 28.6043 13.6743 28.48 13.5483 28.2778C13.4223 28.0755 13.42 27.8256 13.542 27.6212L26.6473 5.67406C26.7743 5.46146 27.0112 5.33691 27.2597 5.33691C27.3308 5.33691 27.4028 5.3471 27.4735 5.36825C27.791 5.46366 27.9935 5.756 27.9578 6.06761L26.4292 19.3974H35.8462C36.0955 19.3974 36.3262 19.5217 36.4522 19.7241C36.5782 19.9263 36.5805 20.1762 36.4585 20.3805L23.3528 42.3256C23.2258 42.5384 22.989 42.6628 22.7405 42.6628Z" fill="#27CBC2"/>
<path d="M27.2597 5.99748L25.6472 20.058H35.846L22.7405 42.0031L24.353 27.9448H14.1542L27.2597 5.99748ZM27.2597 4.67725C26.7627 4.67725 26.2888 4.92619 26.035 5.35123L12.9297 27.2987C12.6857 27.7074 12.6905 28.2072 12.9423 28.6117C13.1943 29.0162 13.6555 29.2648 14.1542 29.2648H22.7892L21.3443 41.8616C21.2728 42.4848 21.6777 43.0695 22.3128 43.2603C22.4542 43.3028 22.5982 43.3232 22.7403 43.3232C23.2372 43.3232 23.7112 43.0742 23.9648 42.6492L37.0703 20.7041C37.3145 20.2953 37.3097 19.7956 37.0577 19.3911C36.8057 18.9866 36.3445 18.7379 35.8458 18.7379H27.2108L28.6557 6.13895C28.7272 5.51573 28.3223 4.93105 27.6872 4.74023C27.546 4.69777 27.4018 4.67725 27.2597 4.67725Z" fill="#025C52"/>
<path d="M35.8457 20.0576L22.7402 42.0027L33.0429 20.0576H35.8457Z" fill="#009B90"/>
<path d="M27.2598 5.99756L17.2826 27.9447H14.1543L27.2598 5.99756Z" fill="#5FF9F9"/>
</svg>
