<svg width="44" height="44" viewBox="0 0 44 44" fill="none" xmlns="http://www.w3.org/2000/svg">
<path d="M5.95866 15.125H5.50033V35.75C5.50033 36.5081 4.88341 37.125 4.12533 37.125C3.36724 37.125 2.75033 36.5081 2.75033 35.75V15.125H2.29199C1.53391 15.125 0.916992 14.5081 0.916992 13.75V7.33333C0.916992 7.08033 1.12233 6.875 1.37533 6.875C1.62833 6.875 1.83366 7.08033 1.83366 7.33333V13.75C1.83366 14.0025 2.03945 14.2083 2.29199 14.2083H3.20866C3.46166 14.2083 3.66699 14.4137 3.66699 14.6667V35.75C3.66699 36.0025 3.87278 36.2083 4.12533 36.2083C4.37787 36.2083 4.58366 36.0025 4.58366 35.75V14.6667C4.58366 14.4137 4.78899 14.2083 5.04199 14.2083H5.95866C6.2112 14.2083 6.41699 14.0025 6.41699 13.75V7.33333C6.41699 7.08033 6.62233 6.875 6.87533 6.875C7.12833 6.875 7.33366 7.08033 7.33366 7.33333V13.75C7.33366 14.5081 6.71674 15.125 5.95866 15.125Z" fill="#34A853"/>
<path d="M2.75 12.8333V7.33333C2.75 7.08033 2.95533 6.875 3.20833 6.875C3.46133 6.875 3.66667 7.08033 3.66667 7.33333V12.8333C3.66667 13.0863 3.46133 13.2917 3.20833 13.2917C2.95533 13.2917 2.75 13.0863 2.75 12.8333ZM4.58333 12.8333V7.33333C4.58333 7.08033 4.78867 6.875 5.04167 6.875C5.29467 6.875 5.5 7.08033 5.5 7.33333V12.8333C5.5 13.0863 5.29467 13.2917 5.04167 13.2917C4.78867 13.2917 4.58333 13.0863 4.58333 12.8333ZM22 6.875C13.6602 6.875 6.875 13.6602 6.875 22C6.875 30.3398 13.6602 37.125 22 37.125C30.3398 37.125 37.125 30.3398 37.125 22C37.125 13.6602 30.3398 6.875 22 6.875ZM22 36.2083C14.1657 36.2083 7.79167 29.8343 7.79167 22C7.79167 14.1657 14.1657 7.79167 22 7.79167C29.8343 7.79167 36.2083 14.1657 36.2083 22C36.2083 29.8343 29.8343 36.2083 22 36.2083Z" fill="#34A853"/>
<path d="M22 11C15.9349 11 11 15.9349 11 22C11 28.0651 15.9349 33 22 33C28.0651 33 33 28.0651 33 22C33 15.9349 28.0651 11 22 11ZM22 32.0833C16.44 32.0833 11.9167 27.56 11.9167 22C11.9167 16.44 16.44 11.9167 22 11.9167C27.56 11.9167 32.0833 16.44 32.0833 22C32.0833 27.56 27.56 32.0833 22 32.0833ZM42.625 6.875H41.7083C40.9732 6.875 40.309 7.44425 40.1949 8.18171L38.0453 24.6909C38.0284 24.8215 38.0683 24.9535 38.1553 25.0525C38.2424 25.1515 38.368 25.2083 38.5 25.2083H40.3333V35.75C40.3333 36.5081 40.9503 37.125 41.7083 37.125C42.4664 37.125 43.0833 36.5081 43.0833 35.75V7.33333C43.0833 7.08033 42.878 6.875 42.625 6.875ZM42.1667 35.75C42.1667 36.0025 41.9609 36.2083 41.7083 36.2083C41.4558 36.2083 41.25 36.0025 41.25 35.75V24.75C41.25 24.497 41.0447 24.2917 40.7917 24.2917H39.022L41.1029 8.31096C41.145 8.03412 41.4283 7.79167 41.7083 7.79167H42.1667V35.75Z" fill="#34A853"/>
</svg>
